<?xml version="1.0" encoding="UTF-8"?>
<svg id="Layer_3" xmlns="http://www.w3.org/2000/svg" version="1.1" viewBox="0 0 100 100">
  <!-- Generator: Adobe Illustrator 30.3.0, SVG Export Plug-In . SVG Version: 2.1.3 Build 182)  -->
  <defs>
    <style>
      .st0 {
        fill: #b3b3b3;
      }

      .st1 {
        fill: #00a98a;
      }
    </style>
  </defs>
  <g>
    <path class="st0" d="M83.52,0H16.47c-4.09,0-7.42,2.8-7.42,6.24v87.53c0,3.44,3.33,6.23,7.43,6.23h67.04c4.1,0,7.43-2.8,7.43-6.23V6.24c-.01-3.44-3.35-6.24-7.43-6.24ZM87.11,93.77c0,1.66-1.61,3.01-3.58,3.01H16.47c-1.98,0-3.58-1.35-3.58-3.01V6.24c0-1.66,1.61-3.01,3.58-3.01h67.04c1.98,0,3.58,1.35,3.58,3.01v87.53h.01Z"/>
    <path class="st0" d="M79.45,7.22H20.55c-1.06,0-1.92.72-1.92,1.61v14.89c0,.89.86,1.61,1.92,1.61h58.91c1.06,0,1.92-.72,1.92-1.61v-14.89c0-.89-.86-1.61-1.92-1.61ZM77.53,22.11H22.46v-11.66h55.07v11.66Z"/>
    <path class="st0" d="M35.42,32.52h-10.12c-1.06,0-1.92.72-1.92,1.61v8.5c0,.89.86,1.61,1.92,1.61h10.12c1.06,0,1.92-.72,1.92-1.61v-8.5c0-.89-.86-1.61-1.92-1.61ZM33.5,41.02h-6.29v-5.28h6.29v5.28Z"/>
    <path class="st0" d="M44.94,44.25h10.12c1.06,0,1.92-.72,1.92-1.61v-8.5c0-.89-.86-1.61-1.92-1.61h-10.12c-1.06,0-1.92.72-1.92,1.61v8.5c0,.89.86,1.61,1.92,1.61ZM46.85,35.75h6.28v5.28h-6.28v-5.28Z"/>
    <path class="st0" d="M74.7,32.52h-10.12c-1.06,0-1.92.72-1.92,1.61v8.5c0,.89.86,1.61,1.92,1.61h10.12c1.06,0,1.92-.72,1.92-1.61v-8.5c0-.89-.86-1.61-1.92-1.61ZM72.77,41.02h-6.29v-5.28h6.29v5.28Z"/>
    <path class="st0" d="M35.42,47.07h-10.12c-1.06,0-1.92.72-1.92,1.61v8.5c0,.89.86,1.61,1.92,1.61h10.12c1.06,0,1.92-.72,1.92-1.61v-8.5c0-.89-.86-1.61-1.92-1.61ZM33.5,55.58h-6.29v-5.28h6.29v5.28Z"/>
    <path class="st0" d="M43.02,57.19c0,.89.86,1.61,1.92,1.61h10.12c1.06,0,1.92-.72,1.92-1.61v-8.5c0-.89-.86-1.61-1.92-1.61h-10.12c-1.06,0-1.92.72-1.92,1.61v8.5ZM46.85,50.3h6.28v5.28h-6.28v-5.28Z"/>
    <path class="st0" d="M74.7,47.07h-10.12c-1.06,0-1.92.72-1.92,1.61v8.5c0,.89.86,1.61,1.92,1.61h10.12c1.06,0,1.92-.72,1.92-1.61v-8.5c0-.89-.86-1.61-1.92-1.61ZM72.77,55.58h-6.29v-5.28h6.29v5.28Z"/>
    <path class="st0" d="M35.42,61.63h-10.12c-1.06,0-1.92.72-1.92,1.61v8.5c0,.89.86,1.61,1.92,1.61h10.12c1.06,0,1.92-.72,1.92-1.61v-8.5c0-.89-.86-1.61-1.92-1.61ZM33.5,70.13h-6.29v-5.28h6.29v5.28Z"/>
    <path class="st0" d="M43.02,71.74c0,.89.86,1.61,1.92,1.61h10.12c1.06,0,1.92-.72,1.92-1.61v-8.5c0-.89-.86-1.61-1.92-1.61h-10.12c-1.06,0-1.92.72-1.92,1.61v8.5ZM46.85,64.86h6.28v5.28h-6.28v-5.28Z"/>
    <path class="st0" d="M74.7,61.63h-10.12c-1.06,0-1.92.72-1.92,1.61v8.5c0,.89.86,1.61,1.92,1.61h10.12c1.06,0,1.92-.72,1.92-1.61v-8.5c0-.89-.86-1.61-1.92-1.61ZM72.77,70.13h-6.29v-5.28h6.29v5.28Z"/>
    <path class="st0" d="M35.42,76.18h-10.12c-1.06,0-1.92.72-1.92,1.61v8.5c0,.89.86,1.61,1.92,1.61h10.12c1.06,0,1.92-.72,1.92-1.61v-8.5c0-.89-.86-1.61-1.92-1.61ZM33.5,84.68h-6.29v-5.28h6.29v5.28Z"/>
    <path class="st0" d="M74.7,76.18h-29.76c-1.06,0-1.92.72-1.92,1.61v8.5c0,.89.86,1.61,1.92,1.61h29.76c1.06,0,1.92-.72,1.92-1.61v-8.5c0-.89-.86-1.61-1.92-1.61ZM72.77,84.68h-25.92v-5.28h25.92v5.28Z"/>
  </g>
  <path class="st1" d="M77.53,22.11H22.46v-11.66h55.07v11.66ZM33.5,41.02h-6.29v-5.28h6.29v5.28ZM46.85,35.75h6.28v5.28h-6.28v-5.28ZM72.77,41.02h-6.29v-5.28h6.29v5.28ZM33.5,55.58h-6.29v-5.28h6.29v5.28ZM46.85,50.3h6.28v5.28h-6.28v-5.28ZM72.77,55.58h-6.29v-5.28h6.29v5.28ZM33.5,70.13h-6.29v-5.28h6.29v5.28ZM46.85,64.86h6.28v5.28h-6.28v-5.28ZM72.77,70.13h-6.29v-5.28h6.29v5.28ZM33.5,84.68h-6.29v-5.28h6.29v5.28ZM72.77,84.68h-25.92v-5.28h25.92v5.28Z"/>
</svg>