<?xml version="1.0" encoding="UTF-8"?>
<svg id="Layer_2" xmlns="http://www.w3.org/2000/svg" version="1.1" viewBox="0 0 100 100">
  <!-- Generator: Adobe Illustrator 30.3.0, SVG Export Plug-In . SVG Version: 2.1.3 Build 182)  -->
  <defs>
    <style>
      .st0 {
        fill: #b3b3b3;
      }

      .st1 {
        fill: #00a98a;
      }
    </style>
  </defs>
  <path class="st0" d="M99.61,51.68s-.01-.02-.02-.04l-6.35-7.06c-.31-.34-.74-.53-1.2-.53h-17.21V14.13c0-.41-.15-.77-.4-1.05,0,0,0-.02-.01-.02l-6.09-6.77c-.31-.34-.74-.53-1.2-.53h-34.24c-.46,0-.89.19-1.2.53l-6.09,6.77s0,.02-.01.03c-.25.28-.4.65-.4,1.05v29.92H7.96c-.46,0-.89.19-1.2.53L.41,51.64s0,.02-.02.03c-.24.28-.4.65-.4,1.05v39.92c0,.89.72,1.61,1.61,1.61h96.77c.89,0,1.61-.72,1.61-1.61v-39.92c0-.4-.15-.76-.39-1.04h.02ZM94.77,51.11h-12.95l-2.15-3.83h11.66l3.45,3.83h-.01ZM69.13,54.33h10.13v6.73l-4.32-2.25c-.23-.12-.49-.18-.74-.18s-.51.06-.74.18l-4.32,2.25v-6.73h-.01ZM20.74,54.33h10.13v6.73l-4.32-2.25c-.23-.12-.49-.18-.74-.18s-.51.06-.74.18l-4.32,2.25v-6.73h-.01ZM45.2,15.75h9.59v6.28l-4.05-2.11c-.23-.12-.49-.18-.74-.18s-.51.06-.74.18l-4.05,2.11v-6.28h0ZM41.98,15.75v8.94c0,.56.29,1.09.78,1.38.48.29,1.08.31,1.58.05l5.67-2.95,5.67,2.95c.23.12.49.18.74.18.29,0,.58-.08.84-.23.48-.29.78-.81.78-1.38v-8.94h13.58v35.07H28.4V15.75h13.58ZM75.96,47.28l2.15,3.83h-3.29v-3.83h1.14ZM69.59,12.52h-12.24l-1.99-3.54h11.04l3.19,3.54ZM51.66,8.98l1.99,3.54h-7.3l1.99-3.54s3.32,0,3.32,0ZM33.6,8.98h11.04l-1.99,3.54h-12.24l3.19-3.54ZM25.17,51.11h-3.29l2.15-3.83h1.14v3.83ZM8.68,47.28h11.66l-2.15,3.83H5.23l3.45-3.83ZM3.23,54.33h14.29v9.39c0,.56.29,1.09.78,1.38.48.29,1.08.31,1.58.05l5.94-3.09,5.94,3.09c.23.12.49.18.74.18.29,0,.58-.08.84-.23.48-.29.78-.82.78-1.38v-9.39h14.29v36.69H3.23s0-36.69,0-36.69ZM96.77,91.02h-45.16v-36.69h14.29v9.39c0,.56.29,1.09.78,1.38.48.29,1.08.31,1.58.05l5.94-3.09,5.94,3.09c.23.12.49.18.74.18.29,0,.58-.08.84-.23.48-.29.78-.82.78-1.38v-9.39h14.29v36.69h-.02Z"/>
  <path class="st1" d="M69.13,54.33h10.13v6.73l-4.32-2.25c-.23-.12-.49-.18-.74-.18s-.51.06-.74.18l-4.32,2.25v-6.73h-.01ZM20.74,54.33h10.13v6.73l-4.32-2.25c-.23-.12-.49-.18-.74-.18s-.51.06-.74.18l-4.32,2.25v-6.73h-.01ZM45.2,15.75h9.59v6.28l-4.05-2.11c-.23-.12-.49-.18-.74-.18s-.51.06-.74.18l-4.05,2.11v-6.28h0ZM75.96,47.28l2.15,3.83h-3.29v-3.83h1.14ZM51.66,8.98l1.99,3.54h-7.3l1.99-3.54s3.32,0,3.32,0ZM25.17,51.11h-3.29l2.15-3.83h1.14v3.83Z"/>
</svg>