<?xml version="1.0" encoding="UTF-8"?>
<svg id="Layer_5" xmlns="http://www.w3.org/2000/svg" version="1.1" viewBox="0 0 100 100">
  <!-- Generator: Adobe Illustrator 30.3.0, SVG Export Plug-In . SVG Version: 2.1.3 Build 182)  -->
  <defs>
    <style>
      .st0 {
        fill: #b3b3b3;
      }

      .st1 {
        fill: #00a98a;
      }
    </style>
  </defs>
  <g>
    <path class="st0" d="M16.08,62.28h32.15c.89,0,1.61-.72,1.61-1.61s-.72-1.61-1.61-1.61H16.08c-.89,0-1.61.72-1.61,1.61s.72,1.61,1.61,1.61Z"/>
    <path class="st0" d="M16.08,70.85h24.53c.89,0,1.61-.72,1.61-1.61s-.72-1.61-1.61-1.61h-24.53c-.89,0-1.61.72-1.61,1.61s.72,1.61,1.61,1.61Z"/>
    <path class="st0" d="M50.23,76.2H16.08c-.89,0-1.61.72-1.61,1.61s.72,1.61,1.61,1.61h34.15c.89,0,1.61-.72,1.61-1.61s-.72-1.61-1.61-1.61Z"/>
    <path class="st0" d="M40.61,84.78h-24.53c-.89,0-1.61.72-1.61,1.61s.72,1.61,1.61,1.61h24.53c.89,0,1.61-.72,1.61-1.61s-.72-1.61-1.61-1.61Z"/>
    <path class="st0" d="M51.45,9.72H15.51c-.89,0-1.61.72-1.61,1.61v35.94c0,.89.72,1.61,1.61,1.61h35.94c.89,0,1.61-.72,1.61-1.61V11.34c0-.89-.72-1.61-1.61-1.61h0ZM36.48,12.95v7.01l-1.99-1.59c-.29-.24-.65-.35-1.01-.35s-.71.12-1.01.35l-1.99,1.59v-7.01h6ZM49.84,45.67H17.12V12.95h10.14v10.37c0,.62.36,1.19.91,1.45.56.27,1.22.19,1.71-.19l3.6-2.88,3.6,2.88c.29.23.65.35,1.01.35.24,0,.48-.05.7-.16.56-.27.91-.83.91-1.45v-10.37h10.14s0,32.72,0,32.72Z"/>
    <path class="st0" d="M95.47,54.46c0-.89-.72-1.61-1.61-1.61h-17.16V13.9s0-.09-.02-.14c-.03-.37-.18-.73-.45-1L63.93.47c-.28-.28-.64-.42-1.02-.45C62.87.01,62.83,0,62.79,0H6.14C5.25,0,4.53.72,4.53,1.61v96.77c0,.89.72,1.61,1.61,1.61h68.94c.89,0,1.61-.72,1.61-1.61v-4.6c4.68-1.21,18.77-7.51,18.77-39.33h0ZM64.4,5.51l6.79,6.79h-6.79v-6.79ZM7.76,96.77V3.23h53.42v10.68c0,.89.72,1.61,1.61,1.61h10.68v37.33h-17.16c-.89,0-1.61.72-1.61,1.61,0,31.82,14.1,38.11,18.77,39.33v2.99H7.76ZM75.08,90.83c-1.81-.27-16.66-3.44-17.15-34.76h34.3c-.49,31.36-15.38,34.5-17.15,34.76Z"/>
    <path class="st0" d="M85.5,63.63c-.66-.6-1.68-.55-2.28.1l-10.04,10.99-4.59-3.61c-.7-.55-1.72-.43-2.26.27-.55.7-.43,1.71.27,2.27l5.77,4.54c.29.23.65.35,1,.35.44,0,.88-.18,1.19-.53l11.05-12.1c.6-.66.55-1.68-.1-2.28h0Z"/>
  </g>
  <path class="st1" d="M36.48,12.95v7.01l-1.99-1.59c-.29-.24-.65-.35-1.01-.35s-.71.12-1.01.35l-1.99,1.59v-7.01h6ZM49.84,45.67H17.12V12.95h10.14v10.37c0,.62.36,1.19.91,1.45.56.27,1.22.19,1.71-.19l3.6-2.88,3.6,2.88c.29.23.65.35,1.01.35.24,0,.48-.05.7-.16.56-.27.91-.83.91-1.45v-10.37h10.14s0,32.72,0,32.72Z"/>
  <path class="st1" d="M64.4,5.51l6.79,6.79h-6.79v-6.79ZM75.08,90.83c-1.81-.27-16.66-3.44-17.15-34.76h34.3c-.49,31.36-15.38,34.5-17.15,34.76ZM85.5,63.63c-.66-.6-1.68-.55-2.28.1l-10.04,10.99-4.59-3.61c-.7-.55-1.72-.43-2.26.27-.55.7-.43,1.71.27,2.27l5.77,4.54c.29.23.65.35,1,.35.44,0,.88-.18,1.19-.53l11.05-12.1c.6-.66.55-1.68-.1-2.28h0Z"/>
</svg>