<?xml version="1.0" encoding="UTF-8"?>
<svg id="Layer_6" xmlns="http://www.w3.org/2000/svg" version="1.1" viewBox="0 0 100 100">
  <!-- Generator: Adobe Illustrator 30.3.0, SVG Export Plug-In . SVG Version: 2.1.3 Build 182)  -->
  <defs>
    <style>
      .st0 {
        fill: #b3b3b3;
      }

      .st1 {
        fill: #00a98a;
      }
    </style>
  </defs>
  <g>
    <path class="st0" d="M97.8,82.31c1.22,0,2.2-.98,2.2-2.2v-32.68c0-.45-.14-.87-.38-1.24l-15.22-22.24c-.41-.6-1.09-.96-1.82-.96h-19.52v-13.32c0-1.22-.98-2.2-2.2-2.2H11.45c-1.22,0-2.2.98-2.2,2.2v12.06h-3.21c-1.22,0-2.2.98-2.2,2.2s.98,2.2,2.2,2.2h3.2v3.44H2.2c-1.22,0-2.2.98-2.2,2.2s.98,2.2,2.2,2.2h7.04v3.44h-3.2c-1.22,0-2.2.98-2.2,2.2s.98,2.2,2.2,2.2h3.2v3.44H2.2c-1.22,0-2.2.98-2.2,2.2s.98,2.2,2.2,2.2h7.04v30.46c0,1.22.98,2.2,2.2,2.2h8.73c.4,2.2,1.37,4.19,2.75,5.82H2.2c-1.22,0-2.2.98-2.2,2.2s.98,2.2,2.2,2.2h95.59c1.22,0,2.2-.98,2.2-2.2s-.98-2.2-2.2-2.2h-8.99c1.38-1.64,2.35-3.63,2.75-5.82h6.26ZM81.42,27.39l14.17,20.72v29.8h-4.04c-1.04-5.81-6.12-10.23-12.23-10.23s-11.19,4.43-12.23,10.23h-4.03V27.39h18.36,0ZM44.63,82.31h22.47c.4,2.2,1.37,4.19,2.75,5.82h-27.96c1.38-1.64,2.35-3.63,2.75-5.82ZM13.65,49.66h15c1.22,0,2.2-.98,2.2-2.2s-.98-2.2-2.2-2.2h-15v-3.44h5.36c1.22,0,2.2-.98,2.2-2.2s-.98-2.2-2.2-2.2h-5.36v-3.44h15c1.22,0,2.2-.98,2.2-2.2s-.98-2.2-2.2-2.2h-15v-3.44h5.36c1.22,0,2.2-.98,2.2-2.2s-.98-2.2-2.2-2.2h-5.36v-9.86h45.01v66.04h-14.03c-1.04-5.81-6.12-10.23-12.23-10.23s-11.19,4.43-12.23,10.23h-6.53v-28.24h0ZM24.37,80.11c0-4.43,3.61-8.03,8.03-8.03s8.03,3.61,8.03,8.03-3.61,8.03-8.03,8.03-8.03-3.61-8.03-8.03ZM71.3,80.11c0-4.43,3.61-8.03,8.03-8.03s8.03,3.61,8.03,8.03-3.61,8.03-8.03,8.03-8.03-3.61-8.03-8.03Z"/>
    <path class="st0" d="M67.73,48.22h21.09c.82,0,1.58-.46,1.95-1.19.38-.74.31-1.61-.16-2.28l-10.01-14.17c-.41-.59-1.08-.93-1.8-.93h-11.07c-1.22,0-2.2.98-2.2,2.2v14.17c0,1.22.98,2.2,2.2,2.2ZM69.95,34.06h7.73l6.9,9.75h-14.63s0-9.75,0-9.75Z"/>
  </g>
  <g>
    <path class="st1" d="M24.37,80.11c0-4.43,3.61-8.03,8.03-8.03s8.03,3.61,8.03,8.03-3.61,8.03-8.03,8.03-8.03-3.61-8.03-8.03ZM71.3,80.11c0-4.43,3.61-8.03,8.03-8.03s8.03,3.61,8.03,8.03-3.61,8.03-8.03,8.03-8.03-3.61-8.03-8.03Z"/>
    <path class="st1" d="M69.95,34.06h7.73l6.9,9.75h-14.63s0-9.75,0-9.75Z"/>
  </g>
</svg>