<?xml version="1.0" encoding="UTF-8"?>
<svg id="Layer_1" xmlns="http://www.w3.org/2000/svg" version="1.1" viewBox="0 0 100 100">
  <!-- Generator: Adobe Illustrator 30.3.0, SVG Export Plug-In . SVG Version: 2.1.3 Build 182)  -->
  <defs>
    <style>
      .st0 {
        fill: #b3b3b3;
      }

      .st1 {
        fill: #00a98a;
      }
    </style>
  </defs>
  <g>
    <path class="st0" d="M88.34,82.37c2.56,0,4.64-2.08,4.64-4.64s-2.08-4.64-4.64-4.64-4.64,2.08-4.64,4.64,2.08,4.64,4.64,4.64ZM86.57,77.73c0-.98.8-1.77,1.77-1.77s1.77.79,1.77,1.77-.79,1.77-1.77,1.77-1.77-.79-1.77-1.77Z"/>
    <path class="st0" d="M11.66,82.37c2.56,0,4.64-2.08,4.64-4.64s-2.08-4.64-4.64-4.64-4.64,2.08-4.64,4.64,2.08,4.64,4.64,4.64ZM9.89,77.73c0-.98.79-1.77,1.77-1.77s1.77.79,1.77,1.77-.8,1.77-1.77,1.77-1.77-.79-1.77-1.77Z"/>
    <path class="st0" d="M88.34,89.39c6.43,0,11.66-5.23,11.66-11.66s-5.23-11.66-11.66-11.66h-35.02v-8.08h-3.99c-.16-6.4-3.18-10.44-7.94-13.55l-4.93-21.65c.18-.31.38-.69.55-1.11l20.27-9.05c.55.2,1.28.4,2.08.4.22,0,.43-.06.61-.1.07-.02.13-.04.2-.05l9.02,6.97s0,.01-.01.02c-.02.09-.06.2-.06.33,0,1.16.4,2.28,1.2,3.33v2.71l-6.34,10.84-.13.14,3.35,7.17.12.26,2.61-1.21-2.64-5.66,3.04-7.39v1.22h8.87v-1.22l3.04,7.39-2.64,5.66,2.61,1.21,3.38-7.25.08-.18-6.47-10.99v-2.71c.8-1.05,1.2-2.17,1.2-3.33,0-3.03-2.44-5.52-5.46-5.62l-9.15-9.5-.2-.21-.03.03c-.73-2.86-3.26-4.89-6.18-4.89-1.78,0-3.41.75-4.67,2.11l-.04-.14-24.08,6.76c-.94-.26-1.75-.38-2.54-.38-5.34,0-9.69,4.35-9.69,9.69,0,2.83,1.26,5.51,3.47,7.38l2.47,21.17c-3.27,3.36-5.2,6.33-5.33,11.38h-4.38v8.08h-2.92C5.24,66.05,0,71.28,0,77.71s5.23,11.66,11.66,11.66h.67v5.24h-7.7v2.87h18.3v-2.87h-7.73v-5.24h69.56v5.24h-7.7v2.87h18.3v-2.87h-7.73v-5.24h.7v.02ZM55.72,6.52c0-2.01,1.64-3.64,3.64-3.64s3.64,1.63,3.64,3.64-1.64,3.64-3.64,3.64-3.64-1.63-3.64-3.64ZM74.76,22.96c-1.52,0-2.76-1.24-2.76-2.76s1.24-2.76,2.76-2.76,2.76,1.24,2.76,2.76-1.24,2.76-2.76,2.76ZM76.32,26.01v2.73h-3.13v-2.73s3.13,0,3.13,0ZM63.23,11.61c.98-.74,1.7-1.7,2.14-2.83l6.45,6.69c-.62.39-1.15.91-1.6,1.54,0,0-6.99-5.4-6.99-5.4ZM54.44,10.76l-16.71,7.47v-.17c0-2.87-1.25-5.52-3.45-7.38l18.76-5.27c-.1.35-.18.71-.18,1.11,0,1.56.56,3.05,1.58,4.24ZM39.73,46.76c4.01,2.56,6.58,5.72,6.73,11.23h-24.62c.24-8.18,5.71-12.97,12.32-12.97,1.67,0,3.31.42,4.84,1.24l.74.5h0ZM28.04,24.88c-3.76,0-6.82-3.06-6.82-6.82s3.06-6.82,6.82-6.82,6.82,3.06,6.82,6.82-3.06,6.82-6.82,6.82ZM34.24,25.47l3.71,17.33c-1.38-.45-2.6-.66-3.79-.66-2.52,0-4.97.77-7.27,2.3l-1.89-17.22c3.24,1.09,6.7.37,9.25-1.76h0ZM17.45,66.07v-5.21h33v5.21H17.45ZM11.66,68.94h76.68c4.85,0,8.79,3.94,8.79,8.79s-3.95,8.79-8.79,8.79H11.66c-4.84,0-8.79-3.94-8.79-8.79s3.95-8.79,8.79-8.79Z"/>
    <path class="st0" d="M59.37,9.37c1.58,0,2.86-1.28,2.86-2.86s-1.28-2.86-2.86-2.86-2.85,1.28-2.85,2.86,1.28,2.86,2.85,2.86ZM58.66,6.52c0-.39.32-.71.71-.71s.71.32.71.71-.32.71-.71.71-.71-.32-.71-.71Z"/>
    <path class="st0" d="M66.91,49.73v10.54h-1.63v2.6h20.43v-2.6h-1.62v-10.54h-17.19.01ZM81.8,52.02v8.55h-12.6v-8.55h12.6Z"/>
    <path class="st0" d="M27,82.37c2.56,0,4.64-2.08,4.64-4.64s-2.08-4.64-4.64-4.64-4.64,2.08-4.64,4.64,2.08,4.64,4.64,4.64ZM25.23,77.73c0-.98.79-1.77,1.77-1.77s1.77.79,1.77,1.77-.8,1.77-1.77,1.77-1.77-.79-1.77-1.77Z"/>
    <path class="st0" d="M73,82.37c2.56,0,4.64-2.08,4.64-4.64s-2.08-4.64-4.64-4.64-4.64,2.08-4.64,4.64,2.08,4.64,4.64,4.64ZM71.23,77.73c0-.98.8-1.77,1.77-1.77s1.77.79,1.77,1.77-.79,1.77-1.77,1.77-1.77-.79-1.77-1.77Z"/>
    <path class="st0" d="M57.67,82.37c2.56,0,4.64-2.08,4.64-4.64s-2.08-4.64-4.64-4.64-4.64,2.08-4.64,4.64,2.08,4.64,4.64,4.64ZM55.9,77.73c0-.98.8-1.77,1.77-1.77s1.77.79,1.77,1.77-.8,1.77-1.77,1.77-1.77-.79-1.77-1.77Z"/>
    <path class="st0" d="M28.04,12.22c-3.22,0-5.84,2.62-5.84,5.84s2.62,5.84,5.84,5.84,5.84-2.62,5.84-5.84-2.62-5.84-5.84-5.84ZM31.56,18.05c0,1.94-1.58,3.52-3.52,3.52s-3.52-1.58-3.52-3.52,1.58-3.52,3.52-3.52,3.52,1.58,3.52,3.52Z"/>
    <path class="st0" d="M34.15,46.76c-3,0-5.45,2.44-5.45,5.45s2.44,5.45,5.45,5.45,5.44-2.44,5.44-5.45-2.44-5.45-5.44-5.45ZM36.73,52.2c0,1.42-1.15,2.58-2.58,2.58s-2.58-1.16-2.58-2.58,1.15-2.58,2.58-2.58,2.58,1.16,2.58,2.58Z"/>
    <path class="st0" d="M42.33,82.37c2.56,0,4.64-2.08,4.64-4.64s-2.08-4.64-4.64-4.64-4.64,2.08-4.64,4.64,2.08,4.64,4.64,4.64ZM42.33,75.96c.98,0,1.77.79,1.77,1.77s-.8,1.77-1.77,1.77-1.77-.79-1.77-1.77.8-1.77,1.77-1.77Z"/>
  </g>
  <path class="st1" d="M13.72,77.73c0-1.13-.92-2.06-2.06-2.06s-2.06.92-2.06,2.06.92,2.06,2.06,2.06,2.06-.92,2.06-2.06ZM29.05,77.73c0-1.13-.92-2.06-2.06-2.06s-2.06.92-2.06,2.06.92,2.06,2.06,2.06,2.06-.92,2.06-2.06ZM44.39,77.73c0-1.13-.92-2.06-2.06-2.06s-2.06.92-2.06,2.06.92,2.06,2.06,2.06,2.06-.92,2.06-2.06ZM59.72,77.73c0-1.13-.92-2.06-2.06-2.06s-2.06.92-2.06,2.06.92,2.06,2.06,2.06,2.06-.92,2.06-2.06ZM75.06,77.73c0-1.13-.92-2.06-2.06-2.06s-2.06.92-2.06,2.06.92,2.06,2.06,2.06,2.06-.92,2.06-2.06ZM88.34,79.78c1.13,0,2.06-.92,2.06-2.06s-.92-2.06-2.06-2.06-2.06.92-2.06,2.06.92,2.06,2.06,2.06Z"/>
  <path class="st1" d="M37.01,52.2c0-1.58-1.29-2.86-2.87-2.86s-2.86,1.29-2.86,2.86,1.29,2.87,2.86,2.87,2.87-1.29,2.87-2.87ZM24.24,18.05c0,2.1,1.71,3.81,3.81,3.81s3.81-1.71,3.81-3.81-1.71-3.81-3.81-3.81-3.81,1.71-3.81,3.81ZM58.37,6.52c0,.55.45.99.99.99s.99-.45.99-.99-.45-.99-.99-.99-.99.45-.99.99ZM74.76,17.15c-1.68,0-3.05,1.37-3.05,3.05s1.37,3.05,3.05,3.05,3.05-1.37,3.05-3.05-1.37-3.05-3.05-3.05Z"/>
  <rect class="st1" x="68.91" y="51.74" width="13.17" height="9.12"/>
</svg>