<?xml version="1.0" encoding="UTF-8"?>
<svg id="Layer_4" xmlns="http://www.w3.org/2000/svg" version="1.1" viewBox="0 0 100 100">
  <!-- Generator: Adobe Illustrator 30.3.0, SVG Export Plug-In . SVG Version: 2.1.3 Build 182)  -->
  <defs>
    <style>
      .st0 {
        fill: #b3b3b3;
      }

      .st1 {
        fill: #00a98a;
      }
    </style>
  </defs>
  <g>
    <path class="st0" d="M86.79,100H13.21c-4.89,0-8.86-3.98-8.86-8.86V17.57c0-4.89,3.98-8.86,8.86-8.86h9.87c.67,0,1.22.55,1.22,1.22v3.96c0,3.17,2.58,5.76,5.76,5.76s5.75-2.58,5.75-5.76v-3.96c0-.67.55-1.22,1.22-1.22h25.93c.67,0,1.22.55,1.22,1.22v3.96c0,3.17,2.58,5.76,5.75,5.76s5.76-2.58,5.76-5.76v-3.96c0-.67.55-1.22,1.22-1.22h9.87c4.89,0,8.86,3.98,8.86,8.86v73.57c0,4.89-3.98,8.86-8.86,8.86h0ZM13.21,11.14c-3.54,0-6.42,2.88-6.42,6.42v73.57c0,3.54,2.88,6.42,6.42,6.42h73.57c3.54,0,6.42-2.88,6.42-6.42V17.57c0-3.54-2.88-6.42-6.42-6.42h-8.65v2.74c0,4.52-3.68,8.2-8.19,8.2s-8.19-3.68-8.19-8.2v-2.74h-23.49v2.74c0,4.52-3.68,8.2-8.19,8.2s-8.2-3.68-8.2-8.2v-2.74h-8.66ZM84.09,94.08H15.3c-2.8,0-5.08-2.28-5.08-5.07v-56.4c0-.67.55-1.22,1.22-1.22h76.51c.67,0,1.22.55,1.22,1.22v56.4c0,2.8-2.28,5.07-5.08,5.07ZM12.66,33.83v55.18c0,1.45,1.18,2.64,2.64,2.64h68.79c1.45,0,2.64-1.18,2.64-2.64v-55.18H12.66Z"/>
    <path class="st0" d="M34.48,53.25h-15.12c-1.18,0-2.14-.96-2.14-2.14v-10.14c0-1.18.96-2.14,2.14-2.14h15.12c1.18,0,2.14.96,2.14,2.14v10.14c0,1.18-.96,2.14-2.14,2.14ZM19.67,50.81h14.52v-9.54h-14.52s0,9.54,0,9.54Z"/>
    <path class="st0" d="M57.25,53.25h-15.12c-1.18,0-2.14-.96-2.14-2.14v-10.14c0-1.18.96-2.14,2.14-2.14h15.12c1.18,0,2.14.96,2.14,2.14v10.14c0,1.18-.96,2.14-2.14,2.14ZM42.43,50.81h14.52v-9.54h-14.52v9.54Z"/>
    <path class="st0" d="M80.02,53.25h-15.12c-1.18,0-2.14-.96-2.14-2.14v-10.14c0-1.18.96-2.14,2.14-2.14h15.12c1.18,0,2.14.96,2.14,2.14v10.14c0,1.18-.96,2.14-2.14,2.14ZM65.2,50.81h14.52v-9.54h-14.52v9.54Z"/>
    <path class="st0" d="M34.48,69.95h-15.12c-1.18,0-2.14-.96-2.14-2.14v-10.14c0-1.18.96-2.14,2.14-2.14h15.12c1.18,0,2.14.96,2.14,2.14v10.14c0,1.18-.96,2.14-2.14,2.14ZM19.67,67.51h14.52v-9.54h-14.52s0,9.54,0,9.54Z"/>
    <path class="st0" d="M57.25,69.95h-15.12c-1.18,0-2.14-.96-2.14-2.14v-10.14c0-1.18.96-2.14,2.14-2.14h15.12c1.18,0,2.14.96,2.14,2.14v10.14c0,1.18-.96,2.14-2.14,2.14ZM42.43,67.51h14.52v-9.54h-14.52v9.54Z"/>
    <path class="st0" d="M80.02,69.95h-15.12c-1.18,0-2.14-.96-2.14-2.14v-10.14c0-1.18.96-2.14,2.14-2.14h15.12c1.18,0,2.14.96,2.14,2.14v10.14c0,1.18-.96,2.14-2.14,2.14ZM65.2,67.51h14.52v-9.54h-14.52v9.54Z"/>
    <path class="st0" d="M34.48,86.65h-15.12c-1.18,0-2.14-.96-2.14-2.14v-10.14c0-1.18.96-2.14,2.14-2.14h15.12c1.18,0,2.14.96,2.14,2.14v10.14c0,1.18-.96,2.14-2.14,2.14ZM19.67,84.21h14.52v-9.54h-14.52s0,9.54,0,9.54Z"/>
    <path class="st0" d="M57.25,86.65h-15.12c-1.18,0-2.14-.96-2.14-2.14v-10.14c0-1.18.96-2.14,2.14-2.14h15.12c1.18,0,2.14.96,2.14,2.14v10.14c0,1.18-.96,2.14-2.14,2.14ZM42.43,84.21h14.52v-9.54h-14.52v9.54Z"/>
    <path class="st0" d="M80.02,86.65h-15.12c-1.18,0-2.14-.96-2.14-2.14v-10.14c0-1.18.96-2.14,2.14-2.14h15.12c1.18,0,2.14.96,2.14,2.14v10.14c0,1.18-.96,2.14-2.14,2.14ZM65.2,84.21h14.52v-9.54h-14.52v9.54Z"/>
    <path class="st0" d="M30.06,19.46c-3.08,0-5.58-2.5-5.58-5.58V5.58c0-3.08,2.5-5.58,5.58-5.58,1.49,0,2.89.58,3.95,1.63,1.05,1.06,1.63,2.46,1.63,3.95v8.29c0,3.08-2.5,5.58-5.58,5.58h0ZM30.06,2.44c-1.73,0-3.14,1.41-3.14,3.14v8.29c0,1.73,1.41,3.14,3.14,3.14s3.14-1.41,3.14-3.14V5.58c0-.84-.33-1.63-.92-2.23-.59-.59-1.38-.92-2.22-.92h0Z"/>
    <path class="st0" d="M69.94,19.46c-3.08,0-5.58-2.5-5.58-5.58V5.58c0-3.08,2.5-5.58,5.58-5.58,1.49,0,2.89.58,3.95,1.63,1.06,1.06,1.64,2.46,1.64,3.95v8.29c0,3.08-2.5,5.58-5.58,5.58h0ZM69.94,2.44c-1.73,0-3.14,1.41-3.14,3.14v8.29c0,1.73,1.41,3.14,3.14,3.14s3.14-1.41,3.14-3.14V5.58c0-.84-.33-1.63-.92-2.23-.59-.59-1.38-.92-2.22-.92h0Z"/>
  </g>
  <path class="st1" d="M19.67,50.81h14.52v-9.54h-14.52s0,9.54,0,9.54Z"/>
  <path class="st1" d="M42.43,50.81h14.52v-9.54h-14.52v9.54Z"/>
  <path class="st1" d="M65.2,50.81h14.52v-9.54h-14.52v9.54Z"/>
  <path class="st1" d="M19.67,67.51h14.52v-9.54h-14.52s0,9.54,0,9.54Z"/>
  <path class="st1" d="M42.43,67.51h14.52v-9.54h-14.52v9.54Z"/>
  <path class="st1" d="M65.2,67.51h14.52v-9.54h-14.52v9.54Z"/>
  <path class="st1" d="M19.67,84.21h14.52v-9.54h-14.52s0,9.54,0,9.54Z"/>
  <path class="st1" d="M42.43,84.21h14.52v-9.54h-14.52v9.54Z"/>
  <path class="st1" d="M65.2,84.21h14.52v-9.54h-14.52v9.54Z"/>
  <path class="st1" d="M30.06,2.44c-1.73,0-3.14,1.41-3.14,3.14v8.29c0,1.73,1.41,3.14,3.14,3.14s3.14-1.41,3.14-3.14V5.58c0-.84-.33-1.63-.92-2.23-.59-.59-1.38-.92-2.22-.92h0Z"/>
  <path class="st1" d="M69.94,2.44c-1.73,0-3.14,1.41-3.14,3.14v8.29c0,1.73,1.41,3.14,3.14,3.14s3.14-1.41,3.14-3.14V5.58c0-.84-.33-1.63-.92-2.23-.59-.59-1.38-.92-2.22-.92h0Z"/>
</svg>