<?xml version="1.0" encoding="UTF-8"?>
<svg id="_Слой_1" xmlns="http://www.w3.org/2000/svg" version="1.1" viewBox="0 0 158.81 69.1">
  <!-- Generator: Adobe Illustrator 30.3.0, SVG Export Plug-In . SVG Version: 2.1.3 Build 182)  -->
  <defs>
    <style>
      .st0 {
        fill: #fff;
      }
    </style>
  </defs>
  <g id="_ТМС_монтажные_системы" data-name="ТМС_монтажные_системы">
    <path class="st0" d="M32.2,32.7c2.8-.9,5.5-2.2,7.9-3.8-2.6.2-5.3.6-8,1.1l-13.7,1.8v1.6c-2.7.8-5.3,2-7.7,3.6,2.9-.2,6-.6,9.1-1.1l12.4-1.7v-1.5Z"/>
    <path class="st0" d="M40.1,21.7c-3,.3-6.2.7-9.4,1.3l-12.4,1.6v1.5c-2.7.8-5.3,2-7.7,3.6,2.5-.2,5.1-.5,7.7-.9h0l13.8-1.8v-1.4c2.9-.9,5.5-2.2,8-3.9Z"/>
    <path class="st0" d="M32.2,39.9c2.8-.9,5.5-2.2,7.9-3.9-2.8.3-5.7.6-8.5,1.2l-13.2,1.8v1.6c-2.7.9-5.3,2.1-7.7,3.6,3.4-.2,6.8-.7,10.1-1.3l11.4-1.5v-1.5Z"/>
    <path class="st0" d="M48.8.7H1.6c-.9,0-1.6.7-1.6,1.6h0v11.3c0,.9.7,1.6,1.6,1.6h16.8v6.3l13.8-1.8v-4.5h16.7c.9,0,1.6-.7,1.6-1.6h0V2.4c0-.9-.7-1.7-1.7-1.7h0Z"/>
    <path class="st0" d="M40.1,43c-7.4.7-14.7,2.1-21.8,4.4.4.8.8,1.5,1.3,2.2l.1.2h0c1.3,1.9,3.2,3.4,5.3,4.2,2.5-1.7,4.4-4,5.6-6.7,3.5-.9,6.6-2.3,9.5-4.3Z"/>
    <path class="st0" d="M110,49.4h-11.2c-.6,0-1-.4-1-1v-24.9l-8.9,25.3c-.1.4-.5.6-.9.7h-7.6c-.4,0-.8-.3-.9-.7l-8.7-24.8v24.5c0,.6-.4,1-1,1h-11.2c-.6,0-1-.4-1-1V1.7c0-.6.4-1,1-1h14.7c.4,0,.8.3.9.7l10,30.2L94.3,1.4c.1-.4.5-.7.9-.7h14.8c.6,0,1,.4,1,1v46.7c0,.6-.5,1-1,1Z"/>
    <path class="st0" d="M139.5,50.1c-6.2,0-11.3-1.9-15.1-5.6s-5.7-8.6-5.7-14.6v-9.8c0-5.9,1.9-10.8,5.5-14.5s8.6-5.6,14.5-5.6c6.3,0,11.3,1.5,14.8,4.4s5.4,7.3,5.3,12.8c0,.1,0,.3-.1.4l-.1.2c-.2.3-.5.5-.9.5h-10.9c-.6,0-1-.4-1-1,0-2.6-.5-4.4-1.6-5.5s-2.9-1.6-5.5-1.6c-2-.1-3.9.8-5,2.5-1.3,2.2-2,4.7-1.9,7.3v9.8c-.1,2.6.6,5.1,2,7.3,1.3,1.7,3.4,2.7,5.6,2.6,2.3,0,3.9-.5,4.8-1.5s1.4-2.9,1.4-5.6c0-.6.4-1,1-1h10.9c.4,0,.8.3.9.7l.1.2c0,.1.1.2.1.3.1,5.6-1.6,9.9-5,12.9-3.4,3-8,4.4-14.1,4.4Z"/>
    <path class="st0" d="M7.2,60.7h2.1v8.1h-2v-4.8l-2.1,3.3h-.3l-2.1-3.3v4.8H.8v-8.1h2l2.2,3.4,2.2-3.4Z"/>
    <path class="st0" d="M18.2,67.8c-1.7,1.7-4.4,1.7-6.1,0-1.7-1.7-1.7-4.4,0-6.1s4.4-1.7,6.1,0c1.6,1.7,1.6,4.4,0,6.1ZM13.5,66.4c.9.8,2.3.8,3.2,0,.4-.4.6-1,.6-1.6s-.2-1.2-.6-1.6c-.9-.8-2.3-.8-3.2,0-.4.4-.6,1-.6,1.6s.2,1.2.6,1.6Z"/>
    <path class="st0" d="M26.2,63.8v-3.1h2.1v8.1h-2.1v-3.1h-3.2v3.1h-2.1v-8.1h2.1v3.1h3.2Z"/>
    <path class="st0" d="M29.5,60.7h7.2v2h-2.5v6.1h-2.1v-6.1h-2.6v-2Z"/>
    <path class="st0" d="M43.6,61.7v-1h2.1v8.1h-2.1v-1c-.6.8-1.6,1.2-2.7,1.2s-2.1-.4-2.8-1.2c-1.5-1.7-1.5-4.4,0-6.1.7-.8,1.7-1.3,2.8-1.3,1.1,0,2.1.4,2.7,1.3ZM39.8,66.4c.9.8,2.3.8,3.2,0,.4-.4.7-1,.7-1.7,0-.6-.2-1.2-.7-1.7-.9-.9-2.3-.9-3.2,0-.4.4-.7,1-.6,1.7-.1.7.1,1.3.6,1.7Z"/>
    <path class="st0" d="M55.7,64.7l2.9,4.1h-2.4l-2.5-3.6v3.6h-2.1v-3.6l-2.5,3.6h-2.3l2.9-4.1-2.8-4h2.5l2.3,3.5v-3.5h2.1v3.5l2.3-3.5h2.4l-2.8,4Z"/>
    <path class="st0" d="M65.1,63.8v-3.1h2.1v8.1h-2.1v-3.1h-3.2v3.1h-2.1v-8.1h2.1v3.1h3.2Z"/>
    <path class="st0" d="M71.2,63.3h1.6c.8,0,1.6.2,2.2.8.6.5.9,1.2.8,2,0,.8-.3,1.5-.8,2-.6.5-1.4.8-2.2.8h-3.7v-8.1h2.1v2.5ZM71.2,67h1.6c.3,0,.5-.1.7-.3.2-.2.3-.4.3-.7s-.1-.5-.3-.7c-.2-.2-.5-.3-.7-.3h-1.6v2ZM76.8,68.8v-8.1h2.1v8.1h-2.1Z"/>
    <path class="st0" d="M88.7,65.6h-6.1c.3,1,1.2,1.7,2.3,1.5.7,0,1.4-.3,1.8-.8l1.7,1c-.8,1.2-2.1,1.8-3.6,1.7-1.2.1-2.4-.4-3.2-1.2-1.6-1.7-1.6-4.4,0-6.1.8-.8,1.9-1.3,3.1-1.2,1.1,0,2.2.4,2.9,1.2.8.8,1.2,1.9,1.2,3.1,0,.2,0,.5-.1.8ZM82.5,64h4.1c-.1-.5-.4-.9-.7-1.2-.4-.3-.8-.4-1.3-.4s-1,.1-1.4.4c-.3.3-.6.7-.7,1.2h0Z"/>
    <path class="st0" d="M98.2,69.1c-2.4,0-4.3-1.9-4.3-4.3s1.9-4.3,4.3-4.3c.8,0,1.5.2,2.2.6.6.4,1.2.9,1.5,1.5l-1.8,1c-.2-.3-.4-.6-.7-.8-.9-.5-2-.4-2.7.3-.8.9-.8,2.3,0,3.2.4.4,1,.6,1.6.6.4,0,.8-.1,1.1-.3.3-.2.6-.5.7-.8l1.8,1c-.3.7-.8,1.2-1.5,1.6-.7.5-1.4.7-2.2.7Z"/>
    <path class="st0" d="M105.1,65.3l3.8-4.6h1.6v8.1h-2.1v-4.6l-3.8,4.6h-1.6v-8.1h2l.1,4.6Z"/>
    <path class="st0" d="M116.3,69.1c-2.4,0-4.3-1.9-4.3-4.3s1.9-4.3,4.3-4.3c.8,0,1.5.2,2.2.6.6.4,1.2.9,1.5,1.5l-1.8,1c-.2-.3-.4-.6-.7-.8-.9-.5-2-.4-2.7.3-.8.9-.8,2.3,0,3.2.4.4,1,.6,1.6.6.4,0,.8-.1,1.1-.3.3-.2.6-.5.7-.8l1.8,1c-.4.7-.9,1.2-1.6,1.6-.6.5-1.4.7-2.1.7Z"/>
    <path class="st0" d="M120.2,60.7h7.2v2h-2.5v6.1h-2.1v-6.1h-2.6v-2Z"/>
    <path class="st0" d="M136.1,65.6h-6.1c.3,1,1.2,1.7,2.3,1.5.7,0,1.4-.3,1.8-.8l1.7,1c-.8,1.2-2.1,1.8-3.6,1.7-1.2.1-2.4-.4-3.2-1.2-1.6-1.7-1.6-4.4,0-6.1.8-.8,1.9-1.3,3.1-1.2,1.1,0,2.2.4,2.9,1.2.8.8,1.2,1.9,1.2,3.1,0,.2,0,.5-.1.8ZM130,64h4.1c-.2-1-1-1.7-2-1.6-.5,0-1,.1-1.4.4-.4.3-.6.7-.7,1.2h0Z"/>
    <path class="st0" d="M144.1,60.7h2.1v8.1h-2v-4.8l-2.1,3.3h-.3l-2.1-3.3v4.8h-2v-8.1h2.1l2.2,3.4,2.1-3.4Z"/>
    <path class="st0" d="M150.2,63.3h1.6c.8,0,1.6.2,2.2.8.6.5.9,1.2.9,2s-.3,1.5-.9,2c-.6.5-1.4.8-2.2.8h-3.7v-8.1h2.1v2.5ZM150.2,67h1.6c.3,0,.5-.1.7-.3.2-.2.3-.4.3-.7s-.1-.5-.3-.7-.5-.3-.7-.3h-1.6v2ZM155.7,68.8v-8.1h2.1v8.1h-2.1Z"/>
  </g>
</svg>