<?xml version="1.0" encoding="UTF-8"?>
<svg id="Layer_1" xmlns="http://www.w3.org/2000/svg" version="1.1" viewBox="0 0 35 35">
  <!-- Generator: Adobe Illustrator 30.3.0, SVG Export Plug-In . SVG Version: 2.1.3 Build 182)  -->
  <defs>
    <style>
      .st0 {
        fill: #fff;
      }
    </style>
  </defs>
  <path class="st0" d="M35,17.5C35,7.85,27.15,0,17.5,0S0,7.85,0,17.5s7.85,17.5,17.5,17.5,17.5-7.85,17.5-17.5ZM33.82,17.5c0,9-7.32,16.32-16.32,16.32S1.18,26.5,1.18,17.5,8.5,1.18,17.5,1.18s16.32,7.32,16.32,16.32ZM29.11,23.15c0,.47-.11.91-.3,1.31l-7.75-8.86,7.45-5.56c.37.51.59,1.14.59,1.82v11.29ZM15.85,15.2c.57.43,1.06.76,1.65.76s1.07-.33,1.64-.76l8.22-6.14c-.41-.21-.88-.32-1.37-.32H9c-.49,0-.96.12-1.37.32l8.22,6.14ZM19.89,16.47c-.55.41-1.35.96-2.39.96s-1.83-.54-2.39-.96l-7.99,9.14c.52.4,1.18.64,1.88.64h16.99c.71,0,1.36-.24,1.89-.64l-7.99-9.14ZM6.48,10.03c-.37.51-.59,1.14-.59,1.82v11.29c0,.47.11.91.3,1.31l7.75-8.86-7.45-5.56Z"/>
</svg>