<?xml version="1.0" encoding="UTF-8"?>
<svg id="Layer_1" xmlns="http://www.w3.org/2000/svg" version="1.1" viewBox="0 0 50 50">
  <!-- Generator: Adobe Illustrator 30.3.0, SVG Export Plug-In . SVG Version: 2.1.3 Build 182)  -->
  <defs>
    <style>
      .st0 {
        fill: #e6e6e6;
      }
    </style>
  </defs>
  <path d="M25.57,1.55C12.25,1.55,1.45,12.35,1.45,25.66s10.8,24.11,24.11,24.11,24.11-10.8,24.11-24.11S38.88,1.55,25.57,1.55ZM25.57,46.66c-11.6,0-21-9.4-21-21S13.97,4.67,25.57,4.67s21,9.4,21,21-9.4,21-21,21ZM12.35,34.17c-.79,0-1.58-.38-2.1-1.11-.91-1.26-.7-3.09.46-4.08l14.81-12.63,14.81,12.63c1.16.99,1.36,2.81.46,4.08-.91,1.27-2.58,1.49-3.74.5l-11.52-9.83-11.52,9.83c-.49.42-1.07.62-1.64.62Z"/>
  <path class="st0" d="M24.43.22C11.12.22.32,11.02.32,24.34s10.8,24.11,24.11,24.11,24.11-10.8,24.11-24.11S37.75.22,24.43.22ZM24.43,45.33c-11.6,0-21-9.4-21-21S12.84,3.34,24.43,3.34s21,9.4,21,21-9.4,21-21,21ZM11.32,32.86c-.79,0-1.58-.38-2.1-1.11-.91-1.26-.7-3.09.46-4.08l14.81-12.63,14.81,12.63c1.16.99,1.36,2.81.46,4.08-.91,1.27-2.58,1.49-3.74.5l-11.52-9.83-11.52,9.83c-.49.42-1.07.62-1.64.62Z"/>
</svg>