<?xml version="1.0" encoding="UTF-8"?>
<svg id="Layer_1" xmlns="http://www.w3.org/2000/svg" version="1.1" viewBox="0 0 35 35">
  <!-- Generator: Adobe Illustrator 30.3.0, SVG Export Plug-In . SVG Version: 2.1.3 Build 182)  -->
  <defs>
    <style>
      .st0 {
        fill: #fff;
      }
    </style>
  </defs>
  <path class="st0" d="M12.88,21.3c-1.9-2.83-2.61-5.61-2.61-5.61-1.09-4.32-.18-5.38.6-6.15s2.66-2.19,4.01-1.25,1.05,3.83,1.05,4.92-1.13,1.39-1.71,1.8-.39.55-.14,1.39c0,0,.48.98,1.52,2.68s1.64,2.12,1.64,2.12c.7.52.77.75,1.36.32s1.26-1.43,2.28-1.07,3.86,1.01,4.29,2.64-1.55,2.98-2.54,3.5-2.3,1.04-6.01-1.44c0,0-1.85-1.02-3.75-3.85ZM35,17.5C35,7.85,27.15,0,17.5,0S0,7.85,0,17.5s7.85,17.5,17.5,17.5,17.5-7.85,17.5-17.5ZM33.82,17.5c0,9-7.32,16.32-16.32,16.32S1.18,26.5,1.18,17.5,8.5,1.18,17.5,1.18s16.32,7.32,16.32,16.32Z"/>
</svg>