<?xml version="1.0" encoding="UTF-8"?>
<svg id="Layer_1" xmlns="http://www.w3.org/2000/svg" version="1.1" viewBox="0 0 35 35">
  <!-- Generator: Adobe Illustrator 30.3.0, SVG Export Plug-In . SVG Version: 2.1.3 Build 182)  -->
  <defs>
    <style>
      .st0 {
        fill: #999;
      }
    </style>
  </defs>
  <path class="st0" d="M34.23,30.5l-6.32-6.32c1.81-2.57,2.79-5.62,2.79-8.83,0-4.1-1.6-7.96-4.5-10.85C23.3,1.6,19.45,0,15.35,0S7.39,1.6,4.49,4.5c-5.99,5.99-5.99,15.72,0,21.71,2.9,2.9,6.76,4.5,10.86,4.5,3.21,0,6.26-.98,8.83-2.79l6.32,6.32c.51.51,1.19.77,1.86.77s1.35-.26,1.86-.77c1.03-1.03,1.03-2.7,0-3.73ZM8.22,22.48c-3.93-3.93-3.93-10.32,0-14.25,1.9-1.9,4.44-2.95,7.13-2.95s5.22,1.05,7.13,2.95,2.95,4.43,2.95,7.13-1.05,5.22-2.95,7.13-4.44,2.95-7.13,2.95-5.22-1.05-7.13-2.95Z"/>
</svg>